<?xml version="1.0" encoding="UTF-8"?>
<svg id="Layer_1" data-name="Layer 1" xmlns="http://www.w3.org/2000/svg" viewBox="0 0 265.98 103.56">
  <defs>
    <style>
      .cls-1 {
        fill: #fff;
      }
    </style>
  </defs>
  <g>
    <path class="cls-1" d="M110.27,65.32c-2.38,0-4.27-.45-5.65-1.35-1.39-.9-2.36-2.15-2.92-3.75-.56-1.6-.83-3.46-.83-5.57v-11.55c0-2.22.28-4.13.83-5.73.56-1.6,1.53-2.84,2.92-3.71s3.27-1.31,5.65-1.31,4.11.38,5.42,1.15c1.31.77,2.23,1.85,2.78,3.25.54,1.4.81,3.03.81,4.88v2.7h-6.35v-3.02c0-.74-.04-1.43-.12-2.08-.08-.65-.3-1.18-.65-1.59-.36-.41-.97-.62-1.84-.62s-1.51.21-1.9.63c-.4.42-.65.97-.75,1.65-.11.67-.16,1.42-.16,2.24v14.6c0,.9.07,1.69.22,2.36.15.67.42,1.19.83,1.55.41.36,1,.54,1.77.54.85,0,1.45-.2,1.81-.61.36-.41.58-.96.67-1.65.09-.69.14-1.41.14-2.18v-3.13h6.35v2.66c0,1.88-.26,3.54-.79,4.98-.53,1.44-1.44,2.58-2.74,3.41-1.3.83-3.12,1.25-5.48,1.25Z"/>
    <path class="cls-1" d="M128.6,65.28c-1.64,0-3.04-.3-4.21-.89-1.16-.6-2.04-1.46-2.64-2.6-.6-1.14-.89-2.55-.89-4.25v-8.25c0-1.69.3-3.11.89-4.25.6-1.14,1.47-2,2.64-2.6,1.16-.6,2.57-.89,4.21-.89s3.04.3,4.21.89c1.16.6,2.05,1.46,2.66,2.6.61,1.14.91,2.55.91,4.25v8.25c0,1.69-.3,3.11-.91,4.25-.61,1.14-1.49,2-2.66,2.6-1.16.6-2.57.89-4.21.89ZM128.64,61.23c.5,0,.89-.14,1.15-.42.26-.28.44-.66.52-1.15.08-.49.12-1.05.12-1.69v-9.09c0-.66-.04-1.23-.12-1.71s-.25-.86-.52-1.15c-.26-.29-.65-.44-1.15-.44s-.89.15-1.15.44c-.26.29-.44.67-.54,1.15-.09.48-.14,1.05-.14,1.71v9.09c0,.63.05,1.2.14,1.69.09.49.27.87.54,1.15.26.28.65.42,1.15.42Z"/>
    <path class="cls-1" d="M158.42,65.28c-1.69,0-3.11-.31-4.25-.93-1.14-.62-2-1.53-2.58-2.74-.58-1.2-.87-2.65-.87-4.34v-7.7c0-1.75.29-3.21.87-4.38.58-1.18,1.45-2.08,2.62-2.7,1.16-.62,2.57-.93,4.21-.93,1.75,0,3.16.32,4.25.95,1.08.63,1.88,1.56,2.4,2.78.52,1.22.77,2.7.77,4.44v4.01h-9.2v4.44c0,.66.07,1.2.22,1.63.15.42.35.72.61.89.26.17.6.26.99.26.37,0,.69-.09.97-.26.28-.17.48-.44.62-.81.13-.37.2-.86.2-1.47v-2.18h5.55v1.9c0,2.33-.63,4.1-1.9,5.32-1.27,1.22-3.09,1.83-5.48,1.83ZM156.63,50.87h3.61v-2.26c0-.66-.07-1.2-.2-1.61-.13-.41-.34-.7-.62-.87-.28-.17-.63-.26-1.05-.26-.4,0-.72.09-.97.28-.25.19-.44.51-.58.97-.13.46-.2,1.12-.2,1.96v1.79Z"/>
    <path class="cls-1" d="M176.55,65.16c-1.98,0-3.64-.36-4.96-1.09-1.32-.73-2.32-1.83-3-3.29-.67-1.47-1.13-3.54-1.13-6.57h5.59c.05,1.32.19,2.43.42,3.31.22.89.57,1.55,1.03,1.98.46.44,1.04.65,1.73.65.85,0,1.42-.26,1.73-.79.3-.53.46-1.14.46-1.83,0-1.35-.32-2.48-.97-3.39-.65-.91-1.5-1.83-2.56-2.76l-3.33-2.9c-1.19-1-2.16-2.14-2.92-3.41-.75-1.27-1.13-2.83-1.13-4.68,0-2.64.77-4.67,2.32-6.09,1.55-1.41,3.67-2.12,6.37-2.12,1.61,0,2.94.26,3.97.79,1.03.53,1.83,1.24,2.4,2.12.57.89.97,1.85,1.19,2.9.22,1.05.24,2.92.29,3.95h-5.47c-.05-.98-.14-1.84-.26-2.58-.12-.74-.36-1.32-.71-1.75-.36-.42-.89-.63-1.61-.63-.77,0-1.34.28-1.71.85-.37.57-.56,1.2-.56,1.88,0,1.14.26,2.07.77,2.8.52.73,1.22,1.49,2.12,2.28l3.25,2.86c1.35,1.16,2.51,2.49,3.47,3.99.97,1.49,1.45,3.34,1.45,5.53,0,1.51-.34,2.87-1.03,4.09-.69,1.22-1.65,2.17-2.88,2.86-1.23.69-2.68,1.03-4.34,1.03Z"/>
    <path class="cls-1" d="M193.25,65.12c-1.61,0-2.86-.24-3.75-.73-.89-.49-1.5-1.2-1.84-2.12-.34-.93-.52-2.05-.52-3.37v-13.01h-2.26v-3.93h2.26v-6.94h6.03v6.94h3.37v3.93h-3.37v12.46c0,.71.18,1.22.56,1.53.37.3.87.46,1.51.46.32,0,.62-.02.91-.06.29-.04.56-.07.79-.1v4.68c-.4.05-.93.11-1.61.18-.67.07-1.37.1-2.08.1Z"/>
    <path class="cls-1" d="M205.55,65.28c-1.64,0-3.04-.3-4.21-.89-1.16-.6-2.04-1.46-2.64-2.6-.6-1.14-.89-2.55-.89-4.25v-8.25c0-1.69.3-3.11.89-4.25.6-1.14,1.47-2,2.64-2.6,1.16-.6,2.57-.89,4.21-.89s3.04.3,4.21.89c1.16.6,2.05,1.46,2.66,2.6.61,1.14.91,2.55.91,4.25v8.25c0,1.69-.3,3.11-.91,4.25-.61,1.14-1.49,2-2.66,2.6-1.16.6-2.57.89-4.21.89ZM205.59,61.23c.5,0,.89-.14,1.15-.42.26-.28.44-.66.52-1.15.08-.49.12-1.05.12-1.69v-9.09c0-.66-.04-1.23-.12-1.71s-.25-.86-.52-1.15c-.26-.29-.65-.44-1.15-.44s-.89.15-1.15.44c-.26.29-.44.67-.54,1.15-.09.48-.14,1.05-.14,1.71v9.09c0,.63.05,1.2.14,1.69.09.49.27.87.54,1.15.26.28.65.42,1.15.42Z"/>
    <path class="cls-1" d="M229.18,71.35v-4.21c.87,0,1.59-.05,2.14-.16.56-.11.97-.3,1.25-.58.28-.28.42-.67.42-1.17,0-.4-.09-.94-.26-1.63-.17-.69-.36-1.45-.58-2.3l-5.24-19.36h5.67l2.94,14.08,2.38-14.08h5.71l-5.32,23.65c-.32,1.48-.84,2.64-1.57,3.47-.73.83-1.61,1.42-2.66,1.77-1.05.34-2.26.52-3.63.52h-1.27Z"/>
    <path class="cls-1" d="M226.47,41.67s-.03,0-.05,0c-1.03,0-1.92.32-2.68.97-.75.65-1.51,1.65-2.28,3v-3.69h-5.99v22.93h5.99v-15.31c.53-.71,1.1-1.26,1.71-1.65.61-.38,1.28-.58,2.02-.58.4,0,.78.05,1.15.14.04.01.09.02.13.03v-5.85Z"/>
    <path class="cls-1" d="M149.52,41.67s-.03,0-.05,0c-1.03,0-1.92.32-2.68.97-.75.65-1.51,1.65-2.28,3v-3.69h-5.99v22.93h5.99v-15.31c.53-.71,1.1-1.26,1.71-1.65.61-.38,1.28-.58,2.02-.58.4,0,.78.05,1.15.14.04.01.09.02.13.03v-5.85Z"/>
  </g>
  <g>
    <path class="cls-1" d="M53.68,66.26h-14.68c-.95,0-1.72-.77-1.72-1.72v-25.53c0-.95.77-1.72,1.72-1.72h14.68c1.59,0,2.87-1.29,2.87-2.87v-9.17c0-1.59-1.29-2.87-2.87-2.87h-25.57c-3.17,0-5.74,2.57-5.74,5.74v47.32c0,3.17,2.57,5.74,5.74,5.74h25.57c1.59,0,2.87-1.29,2.87-2.87v-9.17c0-1.59-1.29-2.87-2.87-2.87Z"/>
    <path class="cls-1" d="M81.17,65.39v-27.64c0-.26-.21-.47-.47-.47h-23.67c-.26,0-.47.21-.47.47v27.64c0,.37.41.6.73.4l11.32-7.32c.16-.1.36-.1.51,0l11.32,7.32c.31.2.73-.02.73-.4Z"/>
  </g>
</svg>